<svg width="1584" height="396" viewBox="0 0 1584 396" role="img" xmlns="http://www.w3.org/2000/svg">
  <title>AccessOps banner</title>
  <desc>AccessOps LinkedIn banner: indigo field with the wordmark, tagline and a large accessibility-mark motif.</desc>
  <rect width="1584" height="396" fill="#4f56d3"/>

  <g opacity="0.16" transform="translate(1166,30) scale(5.2)">
    <circle cx="32" cy="32" r="24" fill="none" stroke="#ffffff" stroke-width="2"/>
    <circle cx="32" cy="56" r="3" fill="#ffffff"/>
    <circle cx="11.2" cy="20" r="3" fill="#ffffff"/>
    <circle cx="52.8" cy="20" r="3" fill="#ffffff"/>
    <circle cx="32" cy="16" r="4" fill="#ffffff"/>
    <path d="M20 26 H44 M32 22 V37 M32 37 L24 48 M32 37 L40 48" fill="none" stroke="#ffffff" stroke-width="4.2" stroke-linecap="round" stroke-linejoin="round"/>
  </g>

  <g opacity="0.28">
    <line x1="470" y1="334" x2="980" y2="334" stroke="#ffffff" stroke-width="1.5" stroke-dasharray="2 12" stroke-linecap="round"/>
    <circle cx="470" cy="334" r="4" fill="#ffffff"/>
    <circle cx="640" cy="334" r="4" fill="#ffffff"/>
    <circle cx="810" cy="334" r="4" fill="#ffffff"/>
    <circle cx="980" cy="334" r="4" fill="#ffffff"/>
  </g>

  <g transform="translate(110,120)">
    <rect width="80" height="80" rx="20" fill="#ffffff" fill-opacity="0.12"/>
    <circle cx="40" cy="40" r="30" fill="none" stroke="#ffffff" stroke-opacity="0.34" stroke-width="2.4"/>
    <circle cx="40" cy="70" r="3.6" fill="#ffffff" fill-opacity="0.9"/>
    <circle cx="14" cy="25" r="3.6" fill="#ffffff" fill-opacity="0.9"/>
    <circle cx="66" cy="25" r="3.6" fill="#ffffff" fill-opacity="0.9"/>
    <circle cx="40" cy="20" r="5" fill="#ffffff"/>
    <path d="M25 32.5 H55 M40 27.5 V46 M40 46 L30 60 M40 46 L50 60" fill="none" stroke="#ffffff" stroke-width="5.2" stroke-linecap="round" stroke-linejoin="round"/>
  </g>

  <text x="214" y="180" font-family="'IBM Plex Sans','Helvetica Neue',Arial,sans-serif" font-size="58" font-weight="600" letter-spacing="-1.5"><tspan fill="#ffffff">Access</tspan><tspan fill="#c9ccf4">Ops</tspan></text>
  <text x="216" y="214" font-family="'IBM Plex Mono',ui-monospace,monospace" font-size="18" letter-spacing="0.3" fill="#ffffff" fill-opacity="0.82">Accessibility conformance, operationalized.</text>
  <text x="216" y="244" font-family="'IBM Plex Sans','Helvetica Neue',Arial,sans-serif" font-size="16" fill="#ffffff" fill-opacity="0.6">Scan, draft, review, export — VPAT 2.5Rev accessibility reports.</text>
</svg>
